<?xml version="1.0" encoding="UTF-8" standalone="no"?>
<!-- Created with Inkscape (http://www.inkscape.org/) -->
<svg
   xmlns:svg="http://www.w3.org/2000/svg"
   xmlns="http://www.w3.org/2000/svg"
   version="1.0"
   width="744.09448"
   height="410.31494"
   id="svg2545">
  <defs
     id="defs2547" />
  <g
     transform="translate(-479.23295,-500.29809)"
     id="layer1">
    <g
       transform="translate(17.716516,17.798976)"
       id="g3877">
      <path
         d="M 813.17736,687.65659 C 813.17736,584.1829 897.05456,500.29809 1000.5359,500.29809 C 1104.0096,500.29809 1187.8944,584.1829 1187.8944,687.65659 C 1187.8944,791.13786 1104.0096,875.01508 1000.5359,875.01508 C 897.05456,875.01508 813.17736,791.13786 813.17736,687.65659"
         style="fill:#006bb6;fill-rule:nonzero;stroke:none"
         id="path3401" />
      <path
         d="M 979.95396,612.08432 C 963.40416,576.48724 935.52536,547.22423 900.94386,528.92918 C 903.53166,527.30434 906.15696,525.73963 908.81996,524.24263 C 944.03336,544.04215 972.19056,574.88491 988.61246,612.08432 L 979.95396,612.08432 z M 900.94386,846.39152 C 939.50476,825.99016 969.73076,791.95027 985.20476,750.70371 L 993.60756,750.70371 C 978.31406,793.49241 947.90756,829.08949 908.81996,851.07813 C 906.15696,849.58112 903.53166,848.01641 900.94386,846.39152"
         style="fill:#ffffff;fill-rule:nonzero;stroke:none"
         id="path3405" />
      <path
         d="M 706.77733,612.08432 C 728.66816,562.51023 771.44936,524.21254 824.06256,508.3247 C 821.76066,508.23449 819.44366,508.18935 817.12676,508.18935 C 745.00736,508.18935 682.82527,550.7298 654.29951,612.08432 L 645.64097,612.08432 C 674.69334,546.25383 740.54636,500.30562 817.12676,500.30562 C 850.43686,500.30562 881.71596,509.00177 908.81996,524.24263 C 906.15696,525.73963 903.53166,527.30434 900.94386,528.92918 C 893.66946,525.07761 886.08666,521.70746 878.26306,518.87143 C 833.08226,535.18049 796.49966,568.9947 776.51966,612.08432 L 767.86866,612.08432 C 787.05126,568.49818 822.36246,533.63083 866.41496,515.04244 C 860.33666,513.31223 854.13056,511.89045 847.81156,510.80721 C 788.87176,520.92514 739.83176,559.62901 715.43586,612.08432 L 706.77733,612.08432 z M 823.88956,867.00352 C 767.05616,849.79929 721.64206,806.326 701.77482,750.70371 L 710.17006,750.70371 C 732.24146,809.50808 784.28296,853.65837 847.69116,864.53611 C 854.05536,863.43777 860.31406,862.00847 866.43756,860.27073 C 818.38296,839.92956 780.57426,800.10477 762.92626,750.70371 L 771.32146,750.70371 C 789.72186,799.73621 828.96736,838.58301 878.26306,856.44174 C 886.09416,853.60571 893.66946,850.24308 900.94386,846.39152 C 903.53166,848.01641 906.15696,849.58112 908.81996,851.07813 C 881.71596,866.31893 850.43686,875.00756 817.12676,875.00756 C 735.76956,875.00756 666.53132,823.16166 640.64593,750.70371 L 649.04122,750.70371 C 674.56545,818.72331 740.19286,867.12388 817.12676,867.12388 C 819.39106,867.12388 821.64786,867.08627 823.88956,867.00352"
         style="fill:#000000;fill-rule:nonzero;stroke:none"
         id="path3409" />
      <path
         d="M 562.29782,723.16339 L 562.29782,674.96594 C 562.29782,660.86098 554.3539,652.78923 542.04686,652.78923 C 532.43297,652.78923 526.79101,655.61021 523.20269,658.94275 C 519.99811,655.61021 514.48397,652.78923 504.10275,652.78923 C 492.43516,652.78923 484.74708,654.97076 479.23295,657.91963 L 479.23295,723.16339 L 498.84446,723.16339 L 498.84446,667.91725 C 500.25871,667.27028 501.66544,666.88661 504.10275,666.88661 C 508.84202,666.88661 510.89572,670.21915 510.89572,674.96594 L 510.89572,723.16339 L 530.63505,723.16339 L 530.63505,668.81242 C 532.0493,667.52606 533.8397,666.88661 536.14918,666.88661 C 540.63261,666.88661 542.68631,670.09126 542.68631,674.96594 L 542.68631,723.16339 L 562.29782,723.16339"
         style="fill:#000000;fill-rule:nonzero;stroke:none"
         id="path3413" />
      <path
         d="M 628.15088,719.19146 L 628.15088,654.06807 L 608.27607,654.06807 L 608.27607,707.90748 C 606.86934,708.55445 605.07148,709.05849 603.15319,709.05849 C 598.66218,709.05849 596.74389,705.98925 596.74389,702.00974 L 596.74389,654.06807 L 577.00455,654.06807 L 577.00455,699.82821 C 577.00455,718.03293 586.74633,724.44223 602.76952,724.44223 C 614.3017,724.44223 622.89252,722.51642 628.15088,719.19146"
         style="fill:#000000;fill-rule:nonzero;stroke:none"
         id="path3417" />
      <path
         d="M 694.59066,723.16339 L 694.59066,674.96594 C 694.59066,660.22159 687.15836,652.78923 668.18625,652.78923 C 657.15811,652.78923 648.83058,654.84293 643.18862,657.91963 L 643.18862,723.16339 L 662.80007,723.16339 L 662.80007,667.91725 C 664.20679,667.27028 665.49316,667.14239 668.05842,667.14239 C 673.0534,667.14239 674.85132,669.96337 674.85132,674.96594 L 674.85132,723.16339 L 694.59066,723.16339"
         style="fill:#000000;fill-rule:nonzero;stroke:none"
         id="path3421" />
      <path
         d="M 758.60826,719.31935 L 758.60826,622.53325 L 738.98926,622.53325 L 738.98926,654.57963 C 737.58246,653.94018 735.52886,653.30079 730.91746,653.30079 C 716.42886,653.30079 706.43128,667.0145 706.43128,688.80754 C 706.43128,712.51886 717.20366,724.44223 735.27306,724.44223 C 746.42906,724.44223 752.96626,722.65183 758.60826,719.31935 z M 738.98926,709.19384 C 738.09406,709.7054 736.81516,709.7054 735.78456,709.7054 C 728.73586,709.7054 726.04276,702.00974 726.04276,688.04026 C 726.04276,675.73322 728.09646,666.503 735.91246,666.503 C 737.07096,666.503 738.22196,666.75872 738.98926,666.75872 L 738.98926,709.19384"
         style="fill:#000000;fill-rule:evenodd;stroke:none"
         id="path3425" />
      <path
         d="M 794.20536,633.56139 C 794.20536,627.79154 789.45856,623.18017 783.69616,623.18017 C 778.05426,623.18017 773.43536,627.79154 773.43536,633.56139 C 773.43536,639.20335 778.05426,643.81473 783.69616,643.81473 C 789.45856,643.81473 794.20536,639.20335 794.20536,633.56139 z M 773.94686,723.16339 L 793.55836,723.16339 L 793.55836,654.06807 L 773.94686,654.06807 L 773.94686,723.16339 z "
         style="fill:#000000;fill-rule:evenodd;stroke:none"
         id="path3429" />
      <path
         d="M 879.87296,688.04026 C 879.87296,665.35199 870.25906,652.78923 852.82166,652.78923 C 844.23826,652.78923 837.43786,654.84293 832.82646,657.91963 L 832.82646,750.72628 L 846.54016,750.72628 L 846.54016,722.90761 C 848.46606,723.54706 850.90336,724.31434 854.61946,724.31434 C 869.36386,724.31434 879.87296,710.60063 879.87296,688.04026 z M 866.28706,688.55182 C 866.28706,700.98668 863.08246,714.44467 851.67056,714.44467 C 849.49656,714.44467 847.95446,714.061 846.54016,713.5495 L 846.54016,663.80985 C 847.95446,663.04257 849.87276,662.6589 852.56586,662.6589 C 862.81916,662.6589 866.28706,674.83805 866.28706,688.55182"
         style="fill:#ffffff;fill-rule:evenodd;stroke:none"
         id="path3433" />
      <path
         d="M 935.47266,723.16339 L 935.47266,673.94288 C 935.47266,660.22159 927.91246,652.78923 915.86126,652.78923 C 911.24236,652.78923 907.01456,654.19596 903.42626,656.24966 L 903.42626,622.53325 L 889.71256,622.53325 L 889.71256,723.16339 L 903.42626,723.16339 L 903.42626,665.2241 C 906.11936,663.68202 908.94036,662.78679 912.27286,662.78679 C 918.04276,662.78679 921.88676,666.75872 921.88676,673.94288 L 921.88676,723.16339 L 935.47266,723.16339"
         style="fill:#ffffff;fill-rule:nonzero;stroke:none"
         id="path3437" />
      <path
         d="M 989.35726,719.31935 L 989.35726,676.75634 C 989.35726,658.81486 979.61546,652.78923 967.69206,652.78923 C 958.46936,652.78923 951.80426,655.61021 948.20856,657.91963 L 951.15736,667.0145 C 954.48986,664.96838 959.74816,663.04257 965.39016,663.04257 C 971.92726,663.04257 976.28286,666.503 976.28286,674.58227 L 976.28286,677.53114 C 958.59716,679.70521 944.62016,685.21928 944.62016,703.16827 C 944.62016,716.24259 952.31586,724.44223 968.21116,724.44223 C 977.95296,724.44223 984.61796,722.51642 989.35726,719.31935 z M 976.28286,713.5495 C 974.74826,714.44467 971.92726,715.08406 968.97846,715.08406 C 961.54606,715.08406 957.43876,710.85635 957.43876,702.77708 C 957.43876,691.3728 963.97596,687.78448 976.28286,685.85867 L 976.28286,713.5495"
         style="fill:#ffffff;fill-rule:evenodd;stroke:none"
         id="path3441" />
      <path
         d="M 1030.0472,652.91712 C 1014.6709,652.40556 1007.4868,654.19596 1001.2054,657.91963 L 1001.2054,723.16339 L 1014.9267,723.16339 L 1014.9267,664.7126 C 1018.1313,662.78679 1022.8706,662.53101 1027.1058,664.45682 L 1030.0472,652.91712"
         style="fill:#ffffff;fill-rule:nonzero;stroke:none"
         id="path3445" />
      <path
         d="M 1114.1802,723.16339 L 1114.1802,673.81499 C 1114.1802,660.22159 1105.9805,652.78923 1094.9523,652.78923 C 1086.3615,652.78923 1080.7271,655.48232 1076.6197,659.83792 C 1073.4226,655.86599 1067.9085,652.78923 1058.2946,652.78923 C 1047.9059,652.78923 1041.4966,654.84293 1036.2458,657.91963 L 1036.2458,723.16339 L 1049.9595,723.16339 L 1049.9595,664.45682 C 1052.1411,663.29835 1054.3227,662.78679 1058.1668,662.78679 C 1064.576,662.78679 1068.4201,667.52606 1068.4201,673.81499 L 1068.4201,723.16339 L 1082.0059,723.16339 L 1082.0059,667.14239 C 1084.4433,664.32141 1087.5201,662.91468 1091.1083,662.91468 C 1097.006,662.91468 1100.4665,666.88661 1100.4665,673.81499 L 1100.4665,723.16339 L 1114.1802,723.16339"
         style="fill:#ffffff;fill-rule:nonzero;stroke:none"
         id="path3449" />
      <path
         d="M 1167.9444,719.31935 L 1167.9444,676.75634 C 1167.9444,658.81486 1158.2101,652.78923 1146.2867,652.78923 C 1137.0565,652.78923 1130.3914,655.61021 1126.8032,657.91963 L 1129.7521,667.0145 C 1133.0845,664.96838 1138.3354,663.04257 1143.9773,663.04257 C 1150.5145,663.04257 1154.8701,666.503 1154.8701,674.58227 L 1154.8701,677.53114 C 1137.1844,679.70521 1123.2073,685.21928 1123.2073,703.16827 C 1123.2073,716.24259 1130.903,724.44223 1146.7983,724.44223 C 1156.5401,724.44223 1163.2052,722.51642 1167.9444,719.31935 z M 1154.8701,713.5495 C 1153.3355,714.44467 1150.5145,715.08406 1147.5656,715.08406 C 1140.1333,715.08406 1136.0334,710.85635 1136.0334,702.77708 C 1136.0334,691.3728 1142.5706,687.78448 1154.8701,685.85867 L 1154.8701,713.5495"
         style="fill:#ffffff;fill-rule:evenodd;stroke:none"
         id="path3453" />
    </g>
  </g>
</svg>
