<svg xmlns="http://www.w3.org/2000/svg" xmlns:xlink="http://www.w3.org/1999/xlink" height="800" width="1200" viewBox="-45.64695 -26.41325 395.6069 158.4795"><g fill="#2473BB"><path d="M72.013 89.869V30.892h22.986c3.889 0 7.114.404 9.677 1.211 2.565.806 4.782 2.492 6.655 5.055 1.873 2.564 2.809 5.574 2.809 9.031 0 3.256-.951 6.086-2.852 8.49-1.9 2.403-4.523 3.938-7.864 4.602 4.149.72 7.287 2.406 9.42 5.056 2.131 2.651 3.198 5.787 3.198 9.418 0 4.552-1.491 8.375-4.473 11.472-2.98 3.098-7.569 4.644-13.762 4.644H72.013zm10.065-34.218h12.964c2.65 0 4.746-.793 6.286-2.377 1.542-1.584 2.312-3.6 2.312-6.049 0-2.707-.88-4.703-2.635-5.984-1.758-1.282-3.817-1.922-6.177-1.922h-12.75zm0 25.362h13.741c2.91 0 5.206-.763 6.892-2.289 1.685-1.527 2.528-3.586 2.528-6.181 0-2.476-.857-4.506-2.57-6.092-1.715-1.584-3.983-2.376-6.808-2.376H82.078zm49.391-39.882h-9.851V30.892h9.851zm0 48.739h-9.851V46.231h9.851zm25.363.908c-6.452 0-11.378-2.318-14.776-6.957-3.398-4.638-5.1-9.951-5.1-15.943 0-6.452 1.881-11.825 5.638-16.116 3.761-4.293 8.723-6.438 14.888-6.438 5.847 0 10.65 2.09 14.409 6.266 3.759 4.177 5.637 9.607 5.637 16.289 0 6.884-1.949 12.422-5.853 16.613-3.904 4.19-8.852 6.286-14.843 6.286m.346-8.123c6.626 0 9.938-4.939 9.938-14.82 0-4.465-.793-7.987-2.377-10.564-1.584-2.578-4.018-3.867-7.303-3.867-3.398 0-5.918 1.334-7.562 3.996-1.642 2.665-2.464 6.202-2.464 10.607 0 4.753.871 8.382 2.616 10.888 1.745 2.508 4.127 3.76 7.152 3.76m95.886-6.697l8.902 1.211c-1.152 3.944-3.401 7.201-6.739 9.763-3.345 2.565-7.534 3.846-12.574 3.846-6.049 0-10.918-2.03-14.605-6.092-3.687-4.062-5.529-9.563-5.529-16.506 0-6.595 1.856-12.054 5.573-16.375 3.716-4.321 8.756-6.481 15.123-6.481 6.222 0 11.032 2.133 14.43 6.396 3.398 4.261 5.1 9.736 5.1 16.418l-.042 1.123H232.76c0 2.966.281 5.343.841 7.128.563 1.788 1.678 3.342 3.352 4.666 1.669 1.327 3.756 1.989 6.264 1.989 4.865 0 8.149-2.362 9.847-7.086m-.603-13.049c-.029-3.14-.972-5.703-2.83-7.689-1.858-1.989-4.155-2.982-6.892-2.982-2.708 0-4.969.928-6.783 2.787-1.815 1.857-2.88 4.486-3.197 7.885h19.702zm51.852 26.96h-9.854V62.605c0-2.879-.659-5.047-1.984-6.502-1.326-1.455-2.924-2.181-4.796-2.181-2.565 0-4.811 1.123-6.741 3.369-1.931 2.248-2.896 5.633-2.896 10.153v22.424h-9.85V46.23h8.987v10.11c3.14-7.344 7.545-11.018 13.221-11.018 3.83 0 7.107 1.209 9.83 3.631 2.724 2.42 4.083 6.668 4.083 12.743zm-91.015-40.966c3.471 2.836 5.206 5.988 5.206 9.459 0 3.876-1.625 7.085-4.882 9.63-3.253 2.548-7.555 3.818-12.906 3.818-2.314 0-5.019-.375-8.114-1.126-2.025.925-3.037 2.357-3.037 4.294 0 1.073.491 2.055 1.475 2.952.982.898 2.472 1.345 4.469 1.345h13.016c4.455 0 7.948 1.149 10.479 3.45 2.531 2.298 3.797 5.156 3.797 8.568 0 4.137-1.916 7.563-5.749 10.28-3.833 2.722-9.509 4.08-17.03 4.08-14.145 0-21.217-3.946-21.217-11.845 0-3.903 2.127-6.87 6.379-8.895-2.72-2.313-4.078-4.73-4.078-7.246 0-3.817 2.328-6.856 6.985-9.109-4.051-2.461-6.073-5.844-6.073-10.154 0-3.643 1.487-6.755 4.469-9.33 2.979-2.572 7.503-3.859 13.58-3.859 2.775 0 5.595.303 8.458.912m-19.09 41.435c-1.418 1.301-2.126 2.56-2.126 3.774 0 1.996 1.186 3.752 3.558 5.271 2.372 1.521 6.145 2.28 11.325 2.28 7.606 0 11.41-1.953 11.41-5.858 0-1.446-.665-2.539-1.997-3.274-1.329-.738-2.85-1.108-4.555-1.108h-10.5c-1.994-.001-4.367-.362-7.115-1.085m10.846-21.606c5.379 0 8.07-2.531 8.07-7.594 0-1.938-.673-3.57-2.017-4.902-1.347-1.33-3.305-1.996-5.88-1.996-2.603 0-4.62.693-6.051 2.082-1.436 1.389-2.149 3.125-2.149 5.207 0 2.141.709 3.877 2.125 5.207 1.419 1.33 3.386 1.996 5.902 1.996"/><path d="M207.643 46.47l12.82-4.315 1.409 8.391-7.079.622"/></g><defs><path d="M7.786 27.812c0 15.359 12.451 27.808 27.807 27.808 15.361 0 27.812-12.448 27.812-27.808C63.405 12.451 50.954 0 35.593 0 20.237 0 7.786 12.451 7.786 27.812" id="a"/></defs><clipPath id="b"><use height="100%" width="100%" overflow="visible" xlink:href="#a"/></clipPath><g clip-path="url(#b)"><linearGradient y2="36.868" x2="65.55" y1="36.868" x1="6.729" gradientUnits="userSpaceOnUse" id="c"><stop offset=".003" stop-color="#d6e6a6"/><stop offset="1" stop-color="#d3deaa"/></linearGradient><path d="M63.124 14.592c2.887 6.931 3.308 15.017.617 22.867-4.875 14.222-19.915 4.932-31.567-8.167-5.806 1.757-10.833 2.811-14.846 3.692-11.37 2.5-14.634 3.651-4.626 15.698 17.673 21.273 35.466 11.104 47.129-4.084a76.84 76.84 0 005.719-8.633V12.924c-.813.573-1.622 1.13-2.426 1.668z" fill="url(#c)"/><linearGradient y2="29.595" x2="32.174" y1="29.595" x1="65.542" gradientUnits="userSpaceOnUse" id="d"><stop offset="0" stop-color="#cdd894"/><stop offset=".329" stop-color="#bfcf83"/><stop offset="1" stop-color="#9eba56"/></linearGradient><path d="M63.741 37.459c2.69-7.851 2.27-15.937-.617-22.867-11.585 7.761-22.163 12.042-30.95 14.7 11.652 13.099 26.692 22.389 31.567 8.167z" fill="url(#d)"/><linearGradient gradientTransform="matrix(-42.0394 -40.716 -40.8604 44.6021 668.183 -23204.914)" y2="282.974" x2="-259.972" y1="283.2" x1="-260.786" gradientUnits="userSpaceOnUse" id="e"><stop offset=".003" stop-color="#cfe294"/><stop offset=".173" stop-color="#b9d187"/><stop offset=".522" stop-color="#87b268"/><stop offset="1" stop-color="#338d45"/></linearGradient><path d="M63.124 14.592C57.249.487 41.11-8.817 19.831-1.489 18.092-.89 17.323.6 17.328 2.695v.014c.023 6.096 6.583 17.297 14.846 26.584 8.787-2.659 19.365-6.94 30.95-14.701z" fill="url(#e)"/></g><g clip-path="url(#b)" opacity=".92"><defs><path d="M42.988 26.913C31.838-7.343 8.201-10.813 1.042 16.167-13.453 70.808 47.417 40.52 42.988 26.913z" id="f"/></defs><clipPath id="h"><use height="100%" width="100%" overflow="visible" xlink:href="#f"/></clipPath><radialGradient gradientUnits="userSpaceOnUse" gradientTransform="matrix(23.4752 0 0 -23.4752 6109.237 6565.986)" r="1" cy="278.66" cx="-259.252" id="g"><stop offset="0" stop-color="#010101"/><stop offset=".092" stop-color="#1f2428"/><stop offset=".214" stop-color="#35404a"/><stop offset=".34" stop-color="#46596b"/><stop offset=".467" stop-color="#536f8a"/><stop offset=".595" stop-color="#5c80a4"/><stop offset=".725" stop-color="#618db8"/><stop offset=".859" stop-color="#6595c6"/><stop offset="1" stop-color="#69c"/></radialGradient><path fill="url(#g)" clip-path="url(#h)" d="M-11.212-9.377h60.868v81.62h-60.868z"/></g><defs><path d="M0 27.812c0 6 1.82 11.578 4.938 16.207 13.094-2.063 27.898-13.127 25.693-20.381C27.46 13.206 22.737 5.72 17.877.981 7.379 5.362 0 15.726 0 27.812" id="i"/></defs><clipPath id="k"><use height="100%" width="100%" overflow="visible" xlink:href="#i"/></clipPath><radialGradient gradientUnits="userSpaceOnUse" gradientTransform="matrix(3.5698 -31.4823 -18.6516 -2.0091 6187.974 -7676.08)" r="1" cy="281.051" cx="-262.404" id="j"><stop offset="0" stop-color="#e7f2f8"/><stop offset=".117" stop-color="#cadbed"/><stop offset=".3" stop-color="#a5c1e1"/><stop offset=".483" stop-color="#89aed7"/><stop offset=".662" stop-color="#76a2d1"/><stop offset=".837" stop-color="#6a9bcd"/><stop offset="1" stop-color="#69c"/></radialGradient><path fill="url(#j)" clip-path="url(#k)" d="M37.721 1.501l-5.218 46.02L-4.821 43.5.397-2.519z"/></svg>