<?xml version="1.0" standalone="no"?>
<!-- Created with Inkscape (http://www.inkscape.org/) -->

<svg
   xmlns:svg="http://www.w3.org/2000/svg"
   xmlns="http://www.w3.org/2000/svg"
   version="1.1"
   width="151"
   height="57.487"
   viewBox="0 0 151 57.487"
   id="Ebene_1"
   xml:space="preserve"><defs
   id="defs4354" />
<path
   d="M 128.839,40.795 V 13.057 M 93.264,32.052 V 4.313 M 56.182,29.338 H 76.683 M 56.182,15.47 H 76.683 M 45.027,4.313 V 17.58 H 33.27 v 23.215 m 70.88,0.302 17.833,-36.784 m -45.3,0 V 40.795 M 4.327,4.313 V 17.58 H 16.084 V 40.795 H 146.628 V 4.313 H 4.327 z"
   id="path4284"
   style="fill:none;stroke:#00967d;stroke-width:4.03999996;stroke-miterlimit:3.86400008" />
<g
   id="g4286">
	<path
   d="M 3.331,49.341 H 1.563 v -0.709 h 4.302 v 0.709 H 4.089 v 5.75 H 3.331 v -5.75 z"
   id="path4288"
   style="fill:#00967d" />
	<path
   d="m 9.411,52.063 h -2.25 v 2.328 h 2.518 v 0.7 H 6.402 v -6.458 h 3.147 v 0.699 H 7.161 v 2.041 h 2.25 v 0.69 z"
   id="path4290"
   style="fill:#00967d" />
	<path
   d="M 11.828,55.09 9.923,48.632 h 0.819 l 0.905,3.181 c 0.242,0.872 0.457,1.658 0.621,2.415 h 0.018 c 0.164,-0.748 0.396,-1.562 0.664,-2.405 l 0.983,-3.191 h 0.802 l -2.078,6.458 h -0.829 z"
   id="path4292"
   style="fill:#00967d" />
	<path
   d="m 15.882,53.059 -0.604,2.032 h -0.776 l 1.983,-6.458 h 0.897 l 1.983,6.458 h -0.802 l -0.621,-2.032 h -2.06 z m 1.914,-0.652 -0.578,-1.859 C 17.089,50.126 17.003,49.743 16.916,49.369 H 16.9 c -0.086,0.374 -0.172,0.776 -0.293,1.169 l -0.569,1.869 h 1.758 z"
   id="path4294"
   style="fill:#00967d" />
	<path
   d="m 21.844,48.708 c 0.362,-0.067 0.836,-0.125 1.439,-0.125 0.742,0 1.285,0.191 1.629,0.537 0.311,0.307 0.509,0.776 0.509,1.351 0,0.584 -0.155,1.044 -0.448,1.38 -0.405,0.469 -1.043,0.709 -1.776,0.709 -0.224,0 -0.431,-0.01 -0.604,-0.058 v 2.587 h -0.75 v -6.381 z m 0.75,3.115 c 0.164,0.048 0.371,0.067 0.621,0.067 0.905,0 1.457,-0.498 1.457,-1.37 0,-0.862 -0.552,-1.274 -1.371,-1.274 -0.328,0 -0.578,0.029 -0.707,0.067 v 2.51 z"
   id="path4296"
   style="fill:#00967d" />
	<path
   d="m 27.08,48.632 v 2.702 h 2.811 V 48.632 H 30.65 V 55.09 H 29.891 V 52.062 H 27.08 v 3.028 h -0.759 v -6.458 h 0.759 z"
   id="path4298"
   style="fill:#00967d" />
	<path
   d="m 32.791,53.059 -0.604,2.032 h -0.776 l 1.983,-6.458 h 0.897 l 1.983,6.458 h -0.802 l -0.621,-2.032 h -2.06 z m 1.914,-0.652 -0.578,-1.859 c -0.129,-0.422 -0.215,-0.805 -0.302,-1.179 h -0.017 c -0.086,0.374 -0.172,0.776 -0.293,1.169 l -0.569,1.869 h 1.759 z"
   id="path4300"
   style="fill:#00967d" />
	<path
   d="m 37.027,48.718 c 0.379,-0.077 0.931,-0.134 1.439,-0.134 0.802,0 1.328,0.172 1.681,0.527 0.285,0.288 0.457,0.728 0.457,1.236 0,0.843 -0.483,1.409 -1.086,1.638 v 0.029 c 0.439,0.173 0.707,0.633 0.845,1.303 0.189,0.901 0.328,1.524 0.448,1.773 H 40.035 C 39.94,54.898 39.811,54.352 39.656,53.547 39.484,52.656 39.165,52.32 38.484,52.292 h -0.707 v 2.798 h -0.75 v -6.372 z m 0.75,2.942 h 0.767 c 0.802,0 1.311,-0.489 1.311,-1.227 0,-0.833 -0.543,-1.198 -1.336,-1.198 -0.362,0 -0.612,0.029 -0.741,0.067 v 2.358 z"
   id="path4302"
   style="fill:#00967d" />
	<path
   d="M 46.462,52.254 C 46.419,51.353 46.367,50.261 46.367,49.465 H 46.35 c -0.207,0.748 -0.439,1.562 -0.733,2.453 l -1.026,3.133 h -0.569 l -0.948,-3.076 c -0.276,-0.92 -0.5,-1.744 -0.664,-2.511 h -0.017 c -0.017,0.805 -0.061,1.878 -0.112,2.855 l -0.155,2.77 H 41.41 l 0.405,-6.458 h 0.957 l 0.991,3.124 c 0.242,0.795 0.431,1.504 0.586,2.175 h 0.017 c 0.155,-0.651 0.362,-1.36 0.621,-2.175 l 1.035,-3.124 h 0.957 l 0.362,6.458 H 46.6 l -0.138,-2.835 z"
   id="path4304"
   style="fill:#00967d" />
	<path
   d="m 49.336,53.059 -0.604,2.032 h -0.776 l 1.983,-6.458 h 0.897 l 1.983,6.458 h -0.802 l -0.621,-2.032 h -2.06 z M 51.25,52.407 50.672,50.548 C 50.543,50.126 50.457,49.743 50.37,49.369 h -0.017 c -0.086,0.374 -0.172,0.776 -0.293,1.169 l -0.569,1.869 h 1.759 z"
   id="path4306"
   style="fill:#00967d" />
	<path
   d="m 57.625,54.889 c -0.267,0.153 -0.828,0.307 -1.534,0.307 -1.638,0 -2.862,-1.15 -2.862,-3.277 0,-2.031 1.232,-3.392 3.035,-3.392 0.715,0 1.181,0.172 1.379,0.288 l -0.19,0.68 c -0.276,-0.153 -0.681,-0.269 -1.164,-0.269 -1.362,0 -2.268,0.968 -2.268,2.664 0,1.591 0.819,2.597 2.224,2.597 0.466,0 0.931,-0.105 1.233,-0.269 l 0.147,0.671 z"
   id="path4308"
   style="fill:#00967d" />
	<path
   d="m 61.473,52.063 h -2.25 v 2.328 h 2.518 v 0.7 h -3.276 v -6.458 h 3.147 v 0.699 h -2.388 v 2.041 h 2.25 v 0.69 z"
   id="path4310"
   style="fill:#00967d" />
	<path
   d="m 63.364,48.632 v 3.833 c 0,1.438 0.578,2.051 1.354,2.051 0.854,0 1.414,-0.633 1.414,-2.051 v -3.833 h 0.758 v 3.775 c 0,1.983 -0.939,2.789 -2.198,2.789 -1.19,0 -2.086,-0.748 -2.086,-2.76 v -3.804 h 0.758 z"
   id="path4312"
   style="fill:#00967d" />
	<path
   d="m 69.195,49.341 h -1.768 v -0.709 h 4.302 v 0.709 h -1.776 v 5.75 h -0.759 v -5.75 z"
   id="path4314"
   style="fill:#00967d" />
	<path
   d="m 73.026,48.632 v 6.458 h -0.759 v -6.458 h 0.759 z"
   id="path4316"
   style="fill:#00967d" />
	<path
   d="m 78.286,54.889 c -0.267,0.153 -0.828,0.307 -1.535,0.307 -1.638,0 -2.862,-1.15 -2.862,-3.277 0,-2.031 1.232,-3.392 3.035,-3.392 0.715,0 1.181,0.172 1.379,0.288 l -0.19,0.68 c -0.276,-0.153 -0.681,-0.269 -1.164,-0.269 -1.362,0 -2.268,0.968 -2.268,2.664 0,1.591 0.819,2.597 2.224,2.597 0.466,0 0.931,-0.105 1.233,-0.269 l 0.148,0.671 z"
   id="path4318"
   style="fill:#00967d" />
	<path
   d="M 80.073,53.059 79.47,55.09 h -0.776 l 1.983,-6.458 h 0.897 l 1.983,6.458 h -0.802 l -0.621,-2.032 h -2.061 z m 1.914,-0.652 -0.578,-1.859 C 81.28,50.126 81.194,49.743 81.107,49.369 H 81.09 c -0.086,0.374 -0.172,0.776 -0.293,1.169 l -0.569,1.869 h 1.759 z"
   id="path4320"
   style="fill:#00967d" />
	<path
   d="m 84.301,48.632 h 0.759 v 5.759 h 2.483 v 0.7 h -3.242 v -6.459 z"
   id="path4322"
   style="fill:#00967d" />
	<path
   d="m 90.753,48.632 v 6.458 h -0.759 v -6.458 h 0.759 z"
   id="path4324"
   style="fill:#00967d" />
	<path
   d="m 91.961,55.09 v -6.458 h 0.828 l 1.854,3.268 c 0.422,0.757 0.767,1.438 1.035,2.099 l 0.026,-0.01 c -0.069,-0.862 -0.086,-1.648 -0.086,-2.654 v -2.702 h 0.707 v 6.458 h -0.759 l -1.845,-3.277 c -0.405,-0.719 -0.793,-1.457 -1.078,-2.156 l -0.026,0.009 c 0.043,0.814 0.052,1.591 0.052,2.664 v 2.76 h -0.708 z"
   id="path4326"
   style="fill:#00967d" />
	<path
   d="m 97.534,48.728 c 0.457,-0.086 1,-0.144 1.595,-0.144 1.078,0 1.845,0.287 2.354,0.805 0.526,0.527 0.828,1.274 0.828,2.319 0,1.054 -0.302,1.917 -0.836,2.511 -0.552,0.604 -1.448,0.93 -2.578,0.93 -0.543,0 -0.983,-0.029 -1.362,-0.077 v -6.344 z m 0.75,5.71 c 0.189,0.029 0.465,0.039 0.759,0.039 1.612,0 2.474,-0.997 2.474,-2.741 0.009,-1.523 -0.767,-2.491 -2.354,-2.491 -0.388,0 -0.681,0.038 -0.879,0.086 v 5.107 z"
   id="path4328"
   style="fill:#00967d" />
	<path
   d="m 103.926,48.632 v 3.833 c 0,1.438 0.578,2.051 1.354,2.051 0.854,0 1.414,-0.633 1.414,-2.051 v -3.833 h 0.758 v 3.775 c 0,1.983 -0.939,2.789 -2.198,2.789 -1.19,0 -2.086,-0.748 -2.086,-2.76 v -3.804 h 0.758 z"
   id="path4330"
   style="fill:#00967d" />
	<path
   d="m 108.56,54.075 c 0.336,0.239 0.819,0.421 1.336,0.421 0.768,0 1.216,-0.45 1.216,-1.102 0,-0.594 -0.311,-0.949 -1.095,-1.274 -0.949,-0.383 -1.535,-0.939 -1.535,-1.84 0,-1.006 0.75,-1.753 1.879,-1.753 0.586,0 1.026,0.153 1.276,0.316 l -0.207,0.68 c -0.181,-0.125 -0.569,-0.307 -1.095,-0.307 -0.793,0 -1.095,0.527 -1.095,0.968 0,0.604 0.354,0.901 1.155,1.246 0.983,0.422 1.475,0.949 1.475,1.897 0,0.997 -0.655,1.869 -2.026,1.869 -0.56,0 -1.172,-0.192 -1.482,-0.422 l 0.198,-0.699 z"
   id="path4332"
   style="fill:#00967d" />
	<path
   d="m 113.907,49.341 h -1.768 v -0.709 h 4.302 v 0.709 h -1.776 v 5.75 h -0.759 v -5.75 z"
   id="path4334"
   style="fill:#00967d" />
	<path
   d="m 116.987,48.718 c 0.379,-0.077 0.931,-0.134 1.439,-0.134 0.802,0 1.328,0.172 1.681,0.527 0.285,0.288 0.457,0.728 0.457,1.236 0,0.843 -0.483,1.409 -1.086,1.638 v 0.029 c 0.439,0.173 0.707,0.633 0.845,1.303 0.189,0.901 0.328,1.524 0.448,1.773 h -0.776 c -0.095,-0.192 -0.224,-0.738 -0.379,-1.543 -0.172,-0.891 -0.491,-1.227 -1.172,-1.255 h -0.707 v 2.798 h -0.75 v -6.372 z m 0.75,2.942 h 0.767 c 0.802,0 1.311,-0.489 1.311,-1.227 0,-0.833 -0.543,-1.198 -1.336,-1.198 -0.362,0 -0.612,0.029 -0.741,0.067 v 2.358 z"
   id="path4336"
   style="fill:#00967d" />
	<path
   d="m 122.275,48.632 v 6.458 h -0.759 v -6.458 h 0.759 z"
   id="path4338"
   style="fill:#00967d" />
	<path
   d="m 126.483,52.063 h -2.25 v 2.328 h 2.518 v 0.7 h -3.276 v -6.458 h 3.147 v 0.699 h -2.388 v 2.041 h 2.25 v 0.69 z"
   id="path4340"
   style="fill:#00967d" />
	<path
   d="m 127.529,54.075 c 0.336,0.239 0.819,0.421 1.336,0.421 0.768,0 1.216,-0.45 1.216,-1.102 0,-0.594 -0.311,-0.949 -1.095,-1.274 -0.949,-0.383 -1.535,-0.939 -1.535,-1.84 0,-1.006 0.75,-1.753 1.879,-1.753 0.586,0 1.026,0.153 1.276,0.316 l -0.207,0.68 c -0.181,-0.125 -0.569,-0.307 -1.095,-0.307 -0.793,0 -1.095,0.527 -1.095,0.968 0,0.604 0.354,0.901 1.155,1.246 0.983,0.422 1.475,0.949 1.475,1.897 0,0.997 -0.655,1.869 -2.026,1.869 -0.56,0 -1.172,-0.192 -1.482,-0.422 l 0.198,-0.699 z"
   id="path4342"
   style="fill:#00967d" />
	<path
   d="m 133.49,48.632 h 0.759 v 5.759 h 2.483 v 0.7 h -3.242 v -6.459 z"
   id="path4344"
   style="fill:#00967d" />
	<path
   d="m 138.053,49.341 h -1.768 v -0.709 h 4.302 v 0.709 h -1.776 v 5.75 h -0.759 v -5.75 z"
   id="path4346"
   style="fill:#00967d" />
	<path
   d="m 141.133,48.728 c 0.457,-0.086 1,-0.144 1.595,-0.144 1.078,0 1.845,0.287 2.354,0.805 0.526,0.527 0.828,1.274 0.828,2.319 0,1.054 -0.302,1.917 -0.836,2.511 -0.552,0.604 -1.448,0.93 -2.578,0.93 -0.543,0 -0.983,-0.029 -1.362,-0.077 v -6.344 z m 0.75,5.71 c 0.189,0.029 0.465,0.039 0.759,0.039 1.612,0 2.474,-0.997 2.474,-2.741 0.009,-1.523 -0.767,-2.491 -2.354,-2.491 -0.388,0 -0.681,0.038 -0.879,0.086 v 5.107 z"
   id="path4348"
   style="fill:#00967d" />
	<path
   d="m 146.568,54.592 c 0,-0.345 0.216,-0.604 0.518,-0.604 0.301,0 0.508,0.249 0.508,0.604 0,0.345 -0.207,0.604 -0.526,0.604 -0.293,0 -0.5,-0.259 -0.5,-0.604 z"
   id="path4350"
   style="fill:#00967d" />
</g>
</svg>