<?xml version="1.0" encoding="utf-8"?>
<!-- Generator: Adobe Illustrator 16.0.5, SVG Export Plug-In . SVG Version: 6.00 Build 0)  -->
<!DOCTYPE svg PUBLIC "-//W3C//DTD SVG 1.1//EN" "http://www.w3.org/Graphics/SVG/1.1/DTD/svg11.dtd">
<svg version="1.1" id="svg63282" xmlns:svg="http://www.w3.org/2000/svg"
	 xmlns="http://www.w3.org/2000/svg" xmlns:xlink="http://www.w3.org/1999/xlink" x="0px" y="0px" width="1009.842px"
	 height="154.205px" viewBox="0 0 1009.842 154.205" enable-background="new 0 0 1009.842 154.205" xml:space="preserve">
<g>
	<g>
		<defs>
			<rect id="SVGID_1_" x="-129.815" y="-212.399" width="1249.473" height="550.001"/>
		</defs>
		<clipPath id="SVGID_2_">
			<use xlink:href="#SVGID_1_"  overflow="visible"/>
		</clipPath>
		<g clip-path="url(#SVGID_2_)">
			<defs>
				<rect id="SVGID_3_" x="-129.815" y="-212.399" width="1249.473" height="550.001"/>
			</defs>
			<clipPath id="SVGID_4_">
				<use xlink:href="#SVGID_3_"  overflow="visible"/>
			</clipPath>
			<path clip-path="url(#SVGID_4_)" fill="#0460A9" d="M50.327,137.671c-15.529,0-30.456-5.257-44.252-11.852l13.628-30.918
				c8.359,6.03,16.546,11.896,27.407,11.896c2.932,0,8.765-0.609,8.765-5.166c0-4.666-4.359-5.658-10.111-7.428
				c-12.876-3.799-33.386-7.503-33.386-34.728c0-27.712,21.265-38.069,45.983-38.069c11.853,0,27.25,4.197,36.779,11.276
				L82.961,60.531c0,0-9.804-8.833-20.622-8.833c-6.181,0-9.963,1.776-9.963,5.605c0,3.924,6.147,5.386,9.823,6.566
				c12.857,3.924,33.958,8.242,33.958,35.437C96.156,127.126,75.514,137.671,50.327,137.671 M171.143,134.451l-3.197-13.923h-29.721
				l-3.982,13.923h-41.33L131.33,24.448h44.809l36.592,110.003H171.143z M152.978,60.073l-9.543,34.446h19.061L152.978,60.073z
				 M287.256,134.451l-33.054-53.553v53.553h-38.088V24.448h38.088l33.054,53.947V24.448h37.819v110.003H287.256z M380.446,134.148
				l-12.624,0.303h-30.293V24.448h28.861l12.567,0.174c35.751,0,63.139,12.889,63.139,55.185
				C442.096,119.82,416.322,134.148,380.446,134.148 M381.612,57.415h-4.549v44.216h4.549c13.621,0,20.775-6.859,20.775-21.354
				C402.387,66.797,395.516,57.415,381.612,57.415 M505.955,137.671c-33.838,0-59.571-23.097-59.571-58.113
				c0-34.281,24.994-58.325,59.408-58.325c34.433,0,60.954,23.434,60.954,58.325C566.746,114.399,544.327,137.671,505.955,137.671
				 M506.387,57.859c-12.438,0-20.059,8.938-20.059,21.555c0,13.025,7.761,21.695,20.059,21.695c12.419,0,20.381-8.67,20.381-21.695
				C526.768,66.483,518.658,57.859,506.387,57.859 M626.173,101.529h40.891v32.922H561.603l47.186-77.036h-37.092V24.448h100.772
				L626.173,101.529z M725.526,58.489H707.19l-4.753,13.584h-6.564l17.014-46.559h7.133l17.143,46.559h-7.004L725.526,58.489z
				 M708.948,53.486h14.889l-4.442-13.016c-1.564-4.501-2.814-9.882-2.814-9.882h-0.189c0,0-1.379,5.566-2.875,9.882L708.948,53.486
				z M762.311,25.514h6.688l19.09,29.159c2.25,3.445,5.196,9.263,5.196,9.263h0.189c0,0-0.447-6.07-0.447-9.948V25.514h6.008v46.559
				h-6.629l-19.021-29.159c-2.249-3.507-5.313-9.2-5.313-9.2h-0.133c0,0,0.379,6.069,0.379,9.819v28.54h-6.007V25.514z
				 M807.296,55.302c0-9.763,6.313-17.648,16.457-17.648c10.136,0,16.332,7.886,16.332,17.648c0,9.823-6.196,17.71-16.332,17.71
				C813.61,73.012,807.296,65.125,807.296,55.302 M834.135,55.302c0-7.257-3.568-13.016-10.442-13.016
				c-6.886,0-10.454,5.759-10.454,13.016c0,7.261,3.568,12.95,10.454,12.95C830.567,68.252,834.135,62.563,834.135,55.302
				 M843.21,38.47h6.192l5.878,18.143c1.443,4.507,3.064,10.704,3.064,10.704h0.133c0,0,1.436-6.197,2.936-10.704l6.007-18.143
				h6.007l-12.071,33.604h-6.446L843.21,38.47z M876.681,63.186c0-7.821,5.753-9.513,14.453-10.579
				c4.946-0.559,8.132-1.373,8.132-4.814c0-3.631-2.561-5.88-7.192-5.88c-5.321,0-7.886,2.501-8.075,6.509h-5.628
				c0.25-5.694,4.563-10.768,13.639-10.768c3.189,0,6.007,0.566,8.132,1.824c2.818,1.684,4.508,4.626,4.508,9.126v15.703
				c0,2.695,0.628,4.134,3.563,3.509h0.254v4.068c-0.814,0.25-1.754,0.5-3.129,0.5c-3.567,0-5.321-1.689-5.946-5.257h-0.061
				c-2.125,2.939-5.571,5.632-11.265,5.632C881.684,72.759,876.681,69.634,876.681,63.186 M899.33,59.677v-5.503
				c-1.689,1.066-4.632,1.881-7.382,2.38c-5.511,0.939-9.132,1.936-9.132,6.568c0,4.32,3.311,5.384,6.688,5.384
				C896.198,68.506,899.33,63.563,899.33,59.677 M914.469,72.073V38.47h5.754v6.069h0.189c2.064-3.878,5.503-6.509,9.953-6.509
				c0.936,0,1.497,0.125,2.125,0.38v5.503h-0.186c-0.817-0.251-1.382-0.314-2.386-0.314c-5.189,0-9.632,3.882-9.632,10.2v18.273
				H914.469z M950.258,72.316c-4.507-0.057-7.628-1.871-7.628-6.814V42.975h-5.261V38.47h5.261V27.897h5.746V38.47h6.946v4.505
				h-6.946v21.208c0,2.439,1.317,3.132,3.446,3.132c1,0,2.314-0.254,2.943-0.436h0.182v4.878
				C953.387,72.134,951.754,72.316,950.258,72.316 M969.086,29.026c0,2.059-1.5,3.564-3.563,3.564c-2.061,0-3.568-1.505-3.568-3.564
				c0-2.068,1.508-3.568,3.568-3.568C967.586,25.458,969.086,26.957,969.086,29.026 M962.644,38.47h5.817v33.604h-5.817V38.47z
				 M975.597,61.867h5.883c0.686,4.888,4.442,6.513,9.261,6.513c5.317,0,7.567-2.316,7.567-5.322c0-3.697-2.814-4.626-8.761-5.821
				c-6.571-1.373-12.511-2.75-12.511-10.136c0-5.755,4.504-9.382,12.325-9.382c8.45,0,12.639,3.941,13.389,9.762h-5.813
				c-0.504-3.445-2.883-5.384-7.704-5.384c-4.564,0-6.499,2.126-6.499,4.695c0,3.501,3.249,4.191,8.942,5.316
				c6.696,1.316,12.453,2.816,12.453,10.639c0,6.818-5.636,10.325-13.514,10.325C981.351,73.073,976.097,68.695,975.597,61.867
				 M699.493,88.084h17.211c13.889,0,20.768,9.515,20.768,23.464c0,13.893-7.258,23.089-21.207,23.089h-16.771V88.084z
				 M716.015,129.065c10.507,0,14.824-6.825,14.824-17.518c0-10.7-3.874-17.896-14.449-17.896h-10.454v35.414H716.015z
				 M752.175,91.583c0,2.068-1.5,3.572-3.561,3.572c-2.071,0-3.567-1.504-3.567-3.572c0-2.057,1.496-3.563,3.567-3.563
				C750.675,88.019,752.175,89.526,752.175,91.583 M745.729,101.033h5.821v33.604h-5.821V101.033z M757.121,101.033h6.186
				l5.886,18.143c1.439,4.508,3.068,10.704,3.068,10.704h0.125c0,0,1.436-6.196,2.935-10.704l6.012-18.143h6.003l-12.071,33.604
				h-6.45L757.121,101.033z M799.35,91.583c0,2.068-1.504,3.572-3.568,3.572c-2.068,0-3.564-1.504-3.564-3.572
				c0-2.057,1.496-3.563,3.564-3.563C797.846,88.019,799.35,89.526,799.35,91.583 M792.906,101.033h5.818v33.604h-5.818V101.033z
				 M805.853,124.436h5.882c0.689,4.883,4.447,6.508,9.261,6.508c5.321,0,7.575-2.314,7.575-5.318c0-3.692-2.821-4.632-8.761-5.817
				c-6.571-1.379-12.518-2.758-12.518-10.14c0-5.757,4.507-9.386,12.332-9.386c8.442,0,12.64,3.943,13.386,9.769h-5.822
				c-0.499-3.446-2.87-5.386-7.692-5.386c-4.563,0-6.507,2.128-6.507,4.688c0,3.508,3.257,4.197,8.95,5.322
				c6.688,1.311,12.449,2.817,12.449,10.639c0,6.814-5.632,10.321-13.514,10.321C811.614,135.636,806.353,131.259,805.853,124.436
				 M848.334,91.583c0,2.068-1.496,3.572-3.564,3.572c-2.067,0-3.567-1.504-3.567-3.572c0-2.057,1.5-3.563,3.567-3.563
				C846.838,88.019,848.334,89.526,848.334,91.583 M841.892,101.033h5.821v33.604h-5.821V101.033z M855.156,117.869
				c0-9.765,6.318-17.646,16.457-17.646c10.136,0,16.332,7.882,16.332,17.646c0,9.821-6.196,17.707-16.332,17.707
				C861.474,135.576,855.156,127.69,855.156,117.869 M881.998,117.869c0-7.261-3.571-13.014-10.45-13.014
				c-6.882,0-10.449,5.753-10.449,13.014s3.567,12.95,10.449,12.95C878.427,130.819,881.998,125.13,881.998,117.869
				 M901.201,134.636h-5.817v-33.604h5.761v4.758h0.186c2.436-3.379,5.757-5.568,10.636-5.568c7.011,0,11.328,3.943,11.328,10.946
				v23.468h-5.761v-22.774c0-4.318-2.814-6.757-7.382-6.757c-5.189,0-8.95,3.692-8.95,9.071V134.636z"/>
		</g>
	</g>
</g>
</svg>
